<svg xmlns="http://www.w3.org/2000/svg" width="64" height="64" viewBox="0 0 64 64"><path d="M32 0C14.327 0 0 4.477 0 10v6l24 24v20c0 2.209 3.582 4 8 4s8-1.791 8-4V40l24-24v-6C64 4.477 49.673 0 32 0zM5.899 8.677c1.497-.854 3.599-1.664 6.08-2.343C17.475 4.829 24.586 4.001 32 4.001s14.525.829 20.021 2.333c2.481.679 4.583 1.489 6.08 2.343.987.563 1.52 1.039 1.769 1.323-.248.284-.782.761-1.769 1.323-1.497.854-3.599 1.664-6.08 2.343C46.525 15.171 39.414 16 32 16s-14.525-.829-20.021-2.334c-2.481-.679-4.583-1.489-6.08-2.343-.987-.563-1.52-1.039-1.769-1.323.248-.284.782-.761 1.769-1.323z"/></svg>