<svg xmlns="http://www.w3.org/2000/svg" width="64" height="64" viewBox="0 0 64 64"><path d="M44.971 51.971a3 3 0 0 1-2.121-5.122c8.188-8.188 8.188-21.511 0-29.698a3 3 0 1 1 4.243-4.243c5.1 5.099 7.908 11.88 7.908 19.092s-2.809 13.992-7.908 19.092a2.99 2.99 0 0 1-2.121.879zm-10.657-5.657a2.998 2.998 0 0 1-2.121-5.121c5.069-5.069 5.069-13.316 0-18.385a3 3 0 1 1 4.243-4.243c7.408 7.408 7.408 19.462 0 26.87a2.988 2.988 0 0 1-2.121.878zM26 60a2 2 0 0 1-1.415-.586L9.171 44H1.999a2 2 0 0 1-2-2V22a2 2 0 0 1 2-2h7.172L24.585 4.586A2.002 2.002 0 0 1 28 6v52a2 2 0 0 1-2 2z"/></svg>